<svg width="20" height="20" viewBox="0 0 20 20" fill="none" xmlns="http://www.w3.org/2000/svg">
<path d="M10 20C15.5229 20 20 15.5229 20 10C20 4.47715 15.5229 0 10 0C4.47712 0 0 4.47715 0 10C0 15.5229 4.47712 20 10 20Z" fill="#060605"/>
<path d="M14.6036 12.0862C15.1356 12.787 15.2471 13.5487 14.9381 14.3716C14.6291 15.1944 14.016 15.7341 13.0988 15.9908C12.6601 16.1135 12.2125 16.1184 11.7563 16.0053C11.2999 15.8922 10.9259 15.6781 10.6342 15.3633C9.57604 15.8292 8.58184 15.8065 7.65175 15.2948C6.72166 14.7834 6.16275 13.9519 5.97502 12.8007C5.51197 12.6895 5.11848 12.4703 4.79457 12.1431C4.47051 11.8161 4.23684 11.4035 4.09357 10.9055C3.86345 10.1059 4.04645 9.35733 4.64288 8.65936C5.23916 7.96154 5.93115 7.65824 6.71871 7.74932L8.10225 7.91464C8.25113 7.43393 8.50829 7.00445 8.87326 6.62619C9.23853 6.24793 9.66983 5.97499 10.1674 5.80736L9.87322 4.78515C9.82418 4.6148 9.84013 4.4581 9.92107 4.31507C10.002 4.17206 10.1289 4.07637 10.3017 4.02801C10.4745 3.97968 10.6334 3.99539 10.7785 4.07517C10.9235 4.15495 11.0206 4.28004 11.0698 4.45043L11.4092 5.62996C11.9425 5.63658 12.4131 5.74909 12.8208 5.96794C13.2286 6.18663 13.6246 6.53957 14.0091 7.0269L15.1657 6.70331C15.3385 6.65496 15.4975 6.67065 15.6425 6.7505C15.7876 6.83021 15.8846 6.95524 15.9336 7.12574C15.9827 7.2961 15.9667 7.45278 15.8858 7.5958C15.8049 7.73882 15.678 7.8345 15.5052 7.88284L14.4683 8.17291C14.585 8.67836 14.5827 9.1818 14.4612 9.68308C14.3398 10.1844 14.1107 10.6238 13.7741 11.0012L14.6036 12.0862ZM9.7939 13.9415C9.69213 13.5876 9.623 13.2352 9.58652 12.8843C9.55019 12.5333 9.54664 12.1839 9.57559 11.8358C9.31135 12.0656 9.01166 12.2591 8.67637 12.4167C8.34094 12.5742 7.99679 12.6882 7.64348 12.7587C7.79074 13.2699 8.05631 13.631 8.44019 13.8422C8.82422 14.0534 9.27546 14.0865 9.7939 13.9415ZM7.39031 11.1302C7.8157 11.0112 8.1761 10.8537 8.47166 10.6577C8.76721 10.4618 9.12894 10.134 9.55683 9.67444L6.88089 9.36093C6.45018 9.31143 6.12213 9.40682 5.89673 9.64682C5.67134 9.88695 5.6096 10.1839 5.71137 10.5377C5.80959 10.8786 5.99422 11.096 6.2654 11.1899C6.53674 11.284 6.91161 11.264 7.39031 11.1302ZM12.6461 14.418C12.9784 14.3251 13.2146 14.1352 13.3546 13.8481C13.4946 13.5611 13.4757 13.308 13.2976 13.0887L11.4513 10.7163C11.3194 11.2063 11.2439 11.6807 11.2251 12.1391C11.2062 12.5975 11.2458 12.9971 11.3439 13.3379C11.4684 13.7704 11.6402 14.0799 11.8591 14.2665C12.078 14.4531 12.3403 14.5036 12.6461 14.418ZM12.7059 9.68566C12.8011 9.51732 12.8574 9.31388 12.875 9.07532C12.8926 8.83677 12.8673 8.59951 12.7994 8.36369C12.6787 7.94428 12.4372 7.62947 12.075 7.41926C11.7129 7.20905 11.3257 7.16157 10.9136 7.27682C10.6744 7.34372 10.4597 7.44631 10.2697 7.58443C10.0796 7.72256 9.93215 7.88414 9.82743 8.06931L11.5866 8.34182L12.7059 9.68566Z" fill="#00C9A7"/>
</svg>
